<?xml version="1.0" encoding="UTF-8" standalone="no"?>
<!-- Created with Inkscape (http://www.inkscape.org/) -->

<svg
   xmlns:dc="http://purl.org/dc/elements/1.1/"
   xmlns:cc="http://creativecommons.org/ns#"
   xmlns:rdf="http://www.w3.org/1999/02/22-rdf-syntax-ns#"
   xmlns:svg="http://www.w3.org/2000/svg"
   xmlns="http://www.w3.org/2000/svg"
   version="1.1"
   width="419.99921"
   height="183.02499"
   id="svg2">
  <defs
     id="defs4" />
  <metadata
     id="metadata7">
    <rdf:RDF>
      <cc:Work
         rdf:about="">
        <dc:format>image/svg+xml</dc:format>
        <dc:type
           rdf:resource="http://purl.org/dc/dcmitype/StillImage" />
        <dc:title></dc:title>
      </cc:Work>
    </rdf:RDF>
  </metadata>
  <g
     transform="translate(-163.02028,-437.83749)"
     id="layer1">
    <g
       transform="matrix(0.26649554,0,0,0.26649554,273.61175,388.28058)"
       id="g2996">
      <path
         d="m -204.87918,848.81074 c -47.69554,-6.49525 -90.25748,-28.87967 -121.27239,-63.78028 -24.1123,-27.13321 -37.37419,-52.47357 -45.77166,-87.45888 -7.99765,-33.31963 -7.31736,-72.89185 1.94942,-113.39788 12.3176,-53.84141 38.42871,-113.44755 71.04687,-162.18498 2.89818,-4.3304 5.05511,-8.43195 4.79317,-9.11455 -0.26194,-0.6826 -1.57609,-1.74221 -2.92032,-2.35468 -5.53613,-2.52243 -16.89157,-10.76272 -24.07129,-17.46779 -19.8583,-18.54546 -28.58603,-37.49947 -28.63634,-62.18952 -0.0424,-20.82927 5.49409,-35.1894 19.19356,-49.78245 16.33978,-17.40559 36.04626,-25.65946 61.36032,-25.70019 24.45382,-0.0393 44.34367,8.13876 59.60371,24.50723 5.95917,6.39203 16.10413,20.63147 16.10413,22.60372 0,2.25305 3.61319,0.21211 13.14499,-7.42504 33.11826,-26.53531 58.77205,-43.05271 91.26843,-58.76392 37.68197,-18.21832 68.99363,-26.70441 102.08988,-27.66841 20.46857,-0.5962 29.76293,0.34667 47.55339,4.82408 26.48402,6.66535 47.27184,18.20754 64.99473,36.08754 19.17462,19.3446 28.21037,35.42325 34.94977,62.19132 7.89723,31.36683 4.99982,68.19475 -8.46152,107.55127 -3.34686,9.78512 -3.31934,11.16371 0.21033,10.53508 33.36452,-5.94216 54.38243,-5.64337 78.01475,1.10907 30.7559,8.78785 59.07325,32.74538 73.41795,62.1143 3.693,7.56093 5.5335,10.3164 6.8908,10.3164 2.7002,0 26.1111,-8.58487 35.4265,-12.99104 5.38255,-2.54594 10.61745,-6.13535 16,-10.97072 16.27736,-14.62262 35.46992,-27.98522 52.42638,-36.50126 25.3448,-12.72893 48.58188,-18.52604 74.28816,-18.53317 40.31273,-0.0112 77.95691,17.996 101.28144,48.44825 3.17969,4.15136 6.28138,7.54724 6.89262,7.54639 1.9336,-0.003 31.3097,-28.78919 41.7236,-40.88618 5.4982,-6.38675 14.2623,-17.09239 19.4759,-23.79032 10.2813,-13.20856 15.3517,-17.37647 24.3057,-19.97946 9.704,-2.82102 21.0632,-0.074 32.87,7.94894 7.864,5.34378 53.7492,44.30016 65.5955,55.69037 19.9052,19.13887 31.3626,36.67559 39.0663,59.79503 2.0569,6.17274 4.106,11.22317 4.5537,11.22317 0.4477,0 4.1185,-3.4875 8.1574,-7.75 55.4064,-58.47449 114.6438,-110.52483 144.4015,-126.88166 13.2701,-7.29421 20.2008,-4.75823 44.8701,16.41818 40.4156,34.69322 38.5799,32.85244 44.9076,45.03117 3.1263,6.01699 5.6841,11.37562 5.6841,11.90807 0,0.53245 -2.3956,4.54721 -5.3236,8.92167 -6.0991,9.1121 -10.7746,19.71589 -14.706,33.35257 -4.182,14.50575 -5.3713,25.75431 -4.6331,43.82069 0.6108,14.95022 1.705,22.56801 8.5722,59.67931 1.1195,6.05 2.3853,13.20905 2.813,15.90901 l 0.7775,4.90901 16.5,0.13957 c 9.075,0.0768 19.4931,0.71867 23.1512,1.42645 l 6.6513,1.28687 8.5987,12.90819 c 4.7294,7.09951 8.5988,13.36858 8.5988,13.93126 0,0.56269 -7.27,16.65305 -16.1555,35.75636 -8.8855,19.1033 -19.1789,41.25828 -22.8743,49.23328 l -6.7188,14.5 -13.3757,0.61505 c -15.3862,0.70749 -20.0434,1.75483 -28.3757,6.38122 -4.4038,2.44515 -7.1046,4.90058 -10.152,9.22979 -18.2605,25.9408 -50.9248,47.08026 -83.848,54.26406 -13.6585,2.98027 -32.7561,2.99647 -47.7998,0.0405 -26.5466,-5.21614 -46.8467,-15.84862 -64.7349,-33.90585 -10.7596,-10.86119 -17.2565,-19.89624 -25.4812,-35.43601 -3.1115,-5.87884 -5.8365,-10.6888 -6.0555,-10.6888 -0.219,0 -4.2967,5.2875 -9.0616,11.75 -37.0664,50.27222 -71.5319,71.63661 -115.367,71.51341 -34.7498,-0.0977 -63.6422,-14.69699 -84.78157,-42.84021 -8.42579,-11.21737 -17.03128,-29.95794 -21.2023,-46.1732 -0.60127,-2.3375 -1.46965,-4.25 -1.92973,-4.25 -0.46008,0 -3.61218,3.58803 -7.00467,7.97341 C 528.30732,792.47039 473.7619,826.8491 427,836.26843 c -21.66846,4.36472 -48.41243,4.61473 -67.33763,0.62949 -29.79815,-6.27484 -56.13277,-23.20158 -74.62331,-47.96461 -7.63733,-10.22812 -16.56588,-25.71462 -20.61098,-35.7496 -1.86721,-4.6321 -3.7042,-7.79384 -4.42699,-7.61952 -0.6795,0.16387 -5.27769,5.24795 -10.21822,11.29795 C 233.42962,776.88778 212.05163,796.3949 191,810.50069 158.99167,831.94808 115.30404,843.98985 82.60484,840.37803 48.73275,836.63665 19.67138,821.08049 -8.73508,791.48501 c -5.34389,-5.56754 -10.18144,-10.12283 -10.75011,-10.12283 -0.56866,0 -5.58686,3.62718 -11.15156,8.06039 -11.60286,9.24361 -34.08545,24.29723 -47.62219,31.88629 -25.41691,14.24938 -50.66475,23.35685 -76.255,27.50689 -11.622,1.88478 -36.50641,1.8823 -50.36524,-0.005 z M -138.127,682.8632 c 33.90336,-7.03108 72.71253,-33.25702 109.01556,-73.66906 6.13597,-6.83049 9.65334,-12.13028 16.59203,-25 4.84294,-8.98258 8.64267,-16.60359 8.44383,-16.93558 -0.19884,-0.33199 -7.01317,-0.85936 -15.14297,-1.17193 -22.85009,-0.87852 -37.6102,-5.30163 -52.85119,-15.83771 -17.52213,-12.11304 -34.46835,-35.97718 -43.57073,-61.3575 -1.28791,-3.59108 -2.83062,-6.52924 -3.42825,-6.52924 -0.59763,0 -4.70535,5.5125 -9.12826,12.25 -28.32918,43.15436 -49.8864,91.27125 -57.98099,129.41674 -2.38281,11.22889 -2.71955,15.02104 -2.69362,30.33326 0.0431,25.47154 1.05345,27.71507 13.48341,29.94203 7.39158,1.32427 27.71753,0.53821 37.26118,-1.44101 z m 255.18583,-7.07569 c 22.18309,-13.34709 44.63752,-40.19929 60.08402,-71.85166 4.96766,-10.17954 5.19757,-8.88692 -3.47435,-19.5337 -2.47559,-3.03935 -5.81865,-8.34172 -7.42904,-11.78303 -1.61038,-3.44132 -3.46343,-6.25694 -4.11788,-6.25694 -2.98469,0 -19.13183,19.22569 -27.96849,33.30086 -14.85912,23.66783 -23.25332,47.47577 -25.27155,71.67616 -0.79679,9.55415 -0.54046,9.69359 8.17729,4.44831 z m 298,-0.99874 c 16.67534,-10.02966 32.24556,-25.97604 46.5019,-47.62534 6.12262,-9.29764 17.93927,-31.72731 17.93927,-34.05126 0,-0.77075 -1.18864,-2.4923 -2.64142,-3.82568 -3.36145,-3.08515 -10.78933,-14.4305 -13.33322,-20.36515 -1.07486,-2.50754 -2.36577,-4.55916 -2.86869,-4.55916 -1.39874,0 -12.97633,12.62805 -19.26919,21.01753 -18.6623,24.88009 -30.66513,53.09757 -33.80934,79.48247 -1.85969,15.60568 -1.89141,15.56359 7.48069,9.92659 z M 48.82735,379.48173 c 6.1244,-11.61696 10.80614,-25.87383 11.01024,-33.52849 L 60,339.86218 l -4,0.31251 c -8.90026,0.69537 -39.82059,13.25339 -41.14769,16.71178 -0.54667,1.4246 4.57477,9.23236 17.98063,27.41191 l 6.95839,9.43619 2.24592,-2.81664 c 1.23525,-1.54916 4.2908,-6.69545 6.7901,-11.4362 z"
         id="path3002"
         style="fill:#949599;fill-opacity:1" />
      <path
         d="m -223.5,819.64793 c -9.0412,-1.01823 -28.63201,-5.57244 -38.05836,-8.8473 -54.45422,-18.91822 -89.66094,-62.29393 -101.49902,-125.04974 -10.38688,-55.06276 3.69862,-125.68889 39.53893,-198.25218 13.53093,-27.39512 26.58302,-49.67277 41.24034,-70.39015 2.62796,-3.71449 4.77811,-7.19551 4.77811,-7.7356 0,-0.54009 -2.62727,-2.30823 -5.83839,-3.9292 -28.96518,-14.62158 -47.46506,-34.30827 -53.15827,-56.5685 -2.50865,-9.80877 -2.70298,-26.01252 -0.41815,-34.86874 4.72372,-18.30967 19.31239,-34.46046 37.97854,-42.0452 13.33842,-5.41988 32.57029,-7.10139 46.93627,-4.1038 11.04142,2.30389 24.47265,9.48055 32.46933,17.34922 9.00423,8.86008 21.45777,28.24942 19.36169,30.14488 -0.45706,0.41332 -3.53102,0.40817 -6.83102,-0.0114 -9.14075,-1.16229 -19.90233,0.52574 -27.41159,4.2997 -8.50312,4.27345 -12.29638,8.99984 -12.81099,15.96246 -0.46972,6.35523 1.58052,10.1956 7.87883,14.75807 7.55327,5.47156 7.52641,5.48026 20.48863,-6.63662 71.35374,-66.70037 137.89244,-106.17657 201.52161,-119.5591 14.6656,-3.08448 16.33537,-3.22664 38.33351,-3.26373 20.52254,-0.0346 24.13102,0.21271 33.5,2.29601 26.2606,5.83934 49.17421,18.76853 66.96228,37.78404 21.5766,23.06545 30.02968,46.53649 30.02968,83.38117 0,35.76869 -9.9151,68.24765 -31.90151,104.5 -3.33566,5.5 -5.66058,10.13667 -5.1665,10.30371 0.49407,0.16704 5.3693,-1.93993 10.83384,-4.68216 12.12969,-6.08697 26.63334,-11.22276 40.39849,-14.30524 8.70769,-1.94995 13.11163,-2.31126 27.84372,-2.28439 18.38125,0.0335 23.74287,0.78975 37,5.21866 21.49897,7.18232 41.28893,21.41065 54.22959,38.98929 5.08435,6.90661 12.92446,22.35977 14.84502,29.26013 2.08585,7.49426 2.39172,7.59872 13.06702,4.46256 11.45094,-3.36403 18.9427,-6.07587 33.7793,-12.2273 9.45158,-3.91875 12.55538,-5.77848 18,-10.78523 33.89374,-31.16797 71.50858,-50.52402 107.79267,-55.46855 14.11522,-1.92352 36.29576,-0.8251 48.7864,2.41598 27.05441,7.02011 51.87965,25.09585 65.97493,48.03762 3.28621,5.3487 6.34063,9.95093 6.7876,10.22717 3.08187,1.90467 41.94487,-36.41056 65.07967,-64.16225 15.8784,-19.04726 20.8167,-23.61636 27.5445,-25.48516 11.4778,-3.18824 19.7373,0.71703 41.916,19.81866 4.8958,4.21658 17.2408,14.74515 27.4334,23.39683 19.7793,16.78912 26.4217,23.69525 32.5836,33.87727 8.7047,14.38391 11.7874,27.10362 10.9179,45.04964 -0.9915,20.46614 -4.8246,28.87324 -32.3588,70.97262 -10.6583,16.29642 -19.3788,30.13392 -19.3788,30.75 0,0.61608 0.3966,1.12014 0.8813,1.12014 0.4848,0 10.0473,-10.43366 21.25,-23.18592 46.1227,-52.50205 62.0396,-70.29061 79.9166,-89.31408 38.4227,-40.88675 89.4806,-86.29601 121.6592,-108.19974 9.83,-6.69118 11.8682,-7.68342 16.5864,-8.0747 6.6453,-0.55108 9.8305,0.93432 18.7065,8.72359 3.575,3.13731 14.4875,12.55064 24.25,20.91851 9.7625,8.36787 17.75,15.61853 17.75,16.11256 0,0.49404 -2.5237,4.4131 -5.6083,8.70902 -7.1473,9.95424 -10.6484,16.92352 -14.9305,29.72045 -5.9501,17.78171 -7.8025,31.57899 -7.8659,58.59031 -0.049,21.00109 0.2369,25.30773 2.6918,40.5 3.7701,23.33208 4.3715,27.52088 6.7479,47 1.1406,9.35 2.4317,17.35981 2.869,17.79959 0.4374,0.43977 5.4754,-0.20591 11.1956,-1.43485 8.5467,-1.83619 13.6977,-2.24605 28.9004,-2.29959 19.4067,-0.0683 26,0.65205 26,2.84082 0,1.38801 -29.9429,69.18286 -34.7126,78.59403 l -2.7874,5.5 -10.0332,0.66645 c -13.2637,0.88103 -21.1044,3.01326 -31.855,8.66276 -8.2631,4.34231 -9.2428,5.19824 -13.9308,12.17079 -17.2955,25.72374 -53.8948,48.34467 -85.778,53.01673 -11.9049,1.7445 -32.0585,0.80682 -42.403,-1.97286 -27.0051,-7.25663 -54.0828,-29.50043 -67.0057,-55.04391 C 803.8357,741.18884 799.5,723.57616 799.5,710.73119 c 0,-4.44448 -0.3777,-6.35998 -1.25,-6.33913 -0.6875,0.0164 -9.125,10.68573 -18.75,23.70955 -9.625,13.02382 -20.1555,26.84788 -23.4012,30.72012 -23.1736,27.64725 -46.1754,43.74683 -72.4234,50.69104 -11.1035,2.93756 -33.3465,3.67955 -43.3809,1.44711 -24.0884,-5.35916 -45.90595,-24.15502 -56.51097,-48.68428 -9.85365,-22.79134 -10.78361,-46.45489 -2.7735,-70.57355 6.52706,-19.65313 15.63537,-34.73576 37.04267,-61.33987 12.6001,-15.65887 44.2253,-56.61558 69.1086,-89.5 4.9941,-6.6 9.8134,-13.44015 10.7095,-15.20034 2.2244,-4.36951 2.0907,-10.51126 -0.2927,-13.43888 l -1.9219,-2.36078 -16.3281,16.04544 c -26.2958,25.84058 -52.8903,48.13877 -72.6398,60.90496 -4.0214,2.59948 -7.7019,5.69906 -8.1787,6.88796 -0.4769,1.1889 -2.49957,8.01164 -4.49482,15.16164 -15.54251,55.69674 -52.81332,114.6967 -96.86897,153.34429 -29.05427,25.48771 -59.44369,41.80404 -90.64581,48.6685 -11.56824,2.54501 -39.26377,3.12587 -50.5,1.05914 -24.41831,-4.49137 -44.33084,-15.22746 -61.25343,-33.02555 -20.12072,-21.16167 -29.34939,-46.02349 -29.62025,-79.79619 -0.0725,-9.03883 -0.51684,-15.61971 -1.04283,-15.44449 -0.50408,0.16792 -3.42908,4.38603 -6.5,9.37359 C 219.7399,754.50414 165.56567,798.25702 111.5,811.02326 c -14.13255,3.33704 -39.0823,4.26382 -53.04149,1.97027 -36.62461,-6.01758 -67.4398,-28.78715 -79.497,-58.74091 -1.85756,-4.61474 -3.95881,-8.51114 -4.66944,-8.65867 -0.71064,-0.14752 -6.69207,3.83127 -13.29207,8.84177 -46.72621,35.47298 -94.89754,58.02767 -137.64611,64.44841 -9.07745,1.36341 -37.42631,1.82555 -46.85389,0.7638 z M -137,693.88486 c 34.62587,-7.209 69.26591,-28.86382 105.02196,-65.65327 16.8821,-17.37 20.58837,-22.05776 25.98745,-32.86941 9.65479,-19.3337 25.04152,-44.11039 37.11562,-59.76594 3.50623,-4.54626 6.37497,-8.73909 6.37497,-9.31738 0,-1.15337 -2.89808,-0.47743 -7.09248,1.65423 -11.3651,5.77592 -29.95899,10.36078 -45.12949,11.12798 -40.06216,2.02603 -72.30612,-15.31393 -87.76718,-47.19889 -6.92096,-14.27291 -9.50165,-30.16267 -7.83804,-48.2601 0.48465,-5.27225 0.53154,-9.92631 0.10419,-10.34236 -0.42735,-0.41605 -4.14041,-0.4507 -8.25125,-0.077 l -7.47426,0.67946 -7.28991,10 c -40.0183,54.89548 -69.1142,118.92524 -77.80962,171.2314 -2.12375,12.77515 -2.93345,35.36588 -1.57691,43.99592 3.46826,22.06439 14.28924,32.51532 37.62495,36.33827 7.46209,1.22247 28.89792,0.35212 38,-1.54291 z m 241.5,0.25569 c 1.925,-0.57927 6.2,-2.39887 9.5,-4.04356 21.6672,-10.79875 40.66081,-28.84128 58.67278,-55.73481 6.74989,-10.07819 20.03004,-35.66056 21.3477,-41.12336 0.54602,-2.26372 -0.30857,-3.57786 -6.23377,-9.58592 -11.26309,-11.42061 -17.08203,-24.75727 -18.19901,-41.71099 -0.3325,-5.04684 -1.06133,-9.07658 -1.67845,-9.28025 -1.67642,-0.55327 -12.46369,7.0289 -22.16806,15.58151 -29.23208,25.76266 -55.64003,71.64313 -61.86967,107.49068 -2.14151,12.323 -1.53515,28.93578 1.23095,33.72509 3.68914,6.38749 9.26029,7.73209 19.39753,4.68161 z m 305.1601,-4.0229 c 22.38209,-10.35015 42.43988,-28.97521 60.96931,-56.6143 7.01406,-10.46239 18.19376,-31.93385 20.84923,-40.04252 l 1.44138,-4.40134 -4.08721,-3.59866 C 476.50306,574.6049 467.5,554.89631 467.5,538.76123 c 0,-3.45456 -0.45821,-6.5642 -1.01824,-6.91032 -2.29019,-1.41542 -17.0754,9.53046 -29.00853,21.47579 -33.89156,33.92618 -56.98858,81.72604 -56.96765,117.89595 0.007,11.65539 1.23369,16.53264 5.1423,20.44126 2.81889,2.81888 3.27715,2.93647 9.65573,2.47766 4.83206,-0.34757 8.82902,-1.46786 14.35649,-4.02392 z m 499.8774,-4.50722 c 7.1925,-7.19254 7.4447,-8.88093 5.9365,-39.74825 -0.6987,-14.3 -1.2814,-37.60553 -1.2949,-51.79006 -0.019,-20.23731 -0.2962,-25.72761 -1.2863,-25.5 -1.1323,0.26028 -16.5137,17.29918 -44.7666,49.59063 -5.4306,6.20685 -9.6261,11.53285 -9.3234,11.83556 0.3027,0.30271 5.5766,-0.005 11.7197,-0.68303 6.2134,-0.68614 14.8014,-0.95423 19.355,-0.60421 8.0549,0.61915 18.2603,3.00968 20.0202,4.68956 0.5171,0.49364 -2.1339,4.10302 -6.2538,8.51453 -9.207,9.85881 -15.1208,21.28993 -15.875,30.68597 -0.9658,12.03179 2.9079,17.76105 12.0088,17.76105 4.6414,0 5.3559,-0.34786 9.7598,-4.75175 z M 12.94011,429.97042 c 18.25367,-9.24333 33.57771,-25.93565 45.08282,-49.10824 7.54102,-15.18846 10.5528,-26.11645 11.16192,-40.5 0.47133,-11.13002 0.39576,-11.67695 -2.34893,-17 -2.31433,-4.48843 -3.75553,-5.95981 -7.83592,-8 -17.56814,-8.78407 -59.58661,5.05428 -99.32372,32.71124 -13.44704,9.35912 -28.17628,21.3445 -28.17628,22.92742 0,0.74874 0.13566,1.36134 0.30147,1.36134 1.56226,0 45.16925,-7.70598 59.19853,-10.46123 19.9859,-3.92509 19.5,-3.85702 19.5,-2.73179 0,0.44383 -4.3484,7.30633 -9.66311,15.25 -19.7542,29.52574 -25.26753,47.91947 -17.02592,56.80238 3.27723,3.53223 5.5087,4.17417 13.07875,3.76243 5.79479,-0.31519 8.34554,-1.11195 16.05039,-5.01355 z"
         id="path3000"
         style="fill:#ffffff;fill-opacity:1" />
      <path
         d="m -219.5,797.72259 c -17.75961,-1.67916 -39.63163,-7.43966 -54.74157,-14.41744 -59.14368,-27.3126 -86.05864,-94.12713 -71.80688,-178.25561 10.94349,-64.59962 40.92839,-131.81237 85.40667,-191.44358 5.02798,-6.74092 9.14178,-12.59494 9.14178,-13.00894 0,-0.414 -3.0375,-1.81815 -6.75,-3.12033 -27.30411,-9.5771 -49.08092,-26.01396 -57.94324,-43.73482 -10.42176,-20.83908 -7.34805,-42.77527 8.11012,-57.87969 7.44415,-7.27379 13.93252,-10.90391 24.16856,-13.52185 17.68015,-4.52182 36.92408,-1.34132 49.85644,8.23992 6.7924,5.03231 7.12844,6.77754 1.30812,6.7938 -9.8169,0.0274 -22.51968,5.56458 -28.32517,12.34698 -4.89667,5.72066 -6.81106,12.35131 -6.13747,21.25764 1.1323,14.97166 10.6651,26.34806 30.11329,35.93706 l 10.90066,5.3746 13.59934,-13.14055 c 83.5621,-80.74297 166.82649,-124.7876 235.90533,-124.7876 22.51463,0 37.56953,3.21803 55.69402,11.90479 34.91385,16.73359 51.8804,46.26017 51.77047,90.09521 -0.0413,16.48261 -1.86685,29.37625 -6.36867,44.98185 -17.45283,60.50045 -65.11327,112.93252 -118.03875,129.85646 -12.53992,4.00988 -19.90685,5.14491 -33.45309,5.15414 -19.37363,0.0132 -35.43101,-5.78242 -48.05884,-17.34595 -8.39863,-7.69078 -13.61601,-15.68163 -17.02037,-26.06809 -3.77947,-11.53089 -3.7435,-27.17321 0.092,-39.99949 2.37954,-7.95748 6.96888,-18.42934 10.68354,-24.37745 0.72492,-1.16078 1.0834,-2.34515 0.79663,-2.63193 -0.28678,-0.28677 -5.44474,0.11284 -11.46215,0.88804 -13.65299,1.75885 -34.79765,3.54242 -41.99628,3.54242 l -5.44658,0 -4.74895,6.08182 c -2.61193,3.34501 -8.39405,11.27828 -12.84916,17.6295 -59.53884,84.87874 -88.11906,171.26785 -74.82437,226.17079 0.88138,3.63984 3.60369,10.7931 6.04958,15.89613 9.81583,20.47951 27.18617,31.12385 53.98885,33.08375 26.58092,1.94368 53.60054,-4.5469 83.31404,-20.01346 27.58771,-14.36005 57.1733,-37.78101 80.5128,-63.73667 9.89618,-11.00545 11.14704,-12.88671 18.42426,-27.70946 17.62317,-35.89612 37.58717,-63.89616 63.76511,-89.43227 28.47596,-27.77778 57.37338,-45.19643 88.19884,-53.16408 15.07943,-3.89767 36.52732,-4.9253 50.82076,-2.43497 36.94616,6.43709 61.23898,29.785 68.74262,66.06878 0.88424,4.27574 1.60771,9.43993 1.60771,11.47597 0,2.03605 0.56834,4.47917 1.26299,5.42915 1.18036,1.61424 1.75278,1.62503 8.75,0.16503 19.02794,-3.97026 45.54942,-12.70227 64.82742,-21.34398 9.47361,-4.24671 12.519,-6.20226 18.5,-11.87949 27.74756,-26.33825 62.9764,-45.49507 93.43038,-50.8058 11.16492,-1.947 31.77682,-1.90404 42.27863,0.0881 35.2178,6.6807 58.78911,28.89921 66.32995,62.52314 1.27108,5.66765 2.80712,10.47016 3.41341,10.67226 1.46614,0.48871 13.84677,-7.93484 26.48472,-18.01969 13.8021,-11.01386 42.2293,-39.69307 58.724,-59.24457 18.8444,-22.33659 21.046,-24.5 24.9327,-24.5 4.0397,0 5.9981,1.06436 13.5989,7.39083 47.9371,39.90022 55.4087,46.74821 62.3841,57.17724 6.2209,9.30108 9.1062,17.7085 9.7962,28.54481 0.6711,10.54061 -1.3328,20.5628 -6.101,30.51234 -1.8245,3.80701 -16.2908,27.16125 -32.1474,51.89831 -15.8565,24.73706 -33.9728,53.01853 -40.2584,62.84772 -14.1335,22.10155 -16.6019,27.26435 -16.6616,34.8487 -0.059,7.44567 2.4234,10.32461 8.7842,10.18887 10.1555,-0.21672 18.6113,-8.05428 63.0163,-58.40882 110.6708,-125.4987 156.5836,-171.91481 209.8319,-212.13227 21.8185,-16.47904 24.3912,-17.42664 31.5418,-11.61773 9.0874,7.38224 21.2059,17.81978 21.7934,18.77034 0.3461,0.56009 -0.934,3.14808 -2.8448,5.7511 -20.5059,27.93453 -26.7493,82.87269 -17.5842,154.72856 1.1225,8.8 2.6951,21.175 3.4947,27.5 0.7996,6.325 1.7397,19.2625 2.0891,28.75 0.3493,9.4875 1.0321,17.25 1.5172,17.25 0.485,0 3.0044,-1.06246 5.5986,-2.36103 5.6326,-2.81944 15.2888,-6.03906 24.2168,-8.07451 8.0557,-1.83659 31.1877,-3.77674 32.2588,-2.70565 0.4338,0.43375 -3.8345,11.00929 -9.4851,23.5012 -7.8606,17.37773 -10.7435,22.80239 -12.2737,23.09496 -1.1,0.21031 -5.9845,1.10944 -10.8544,1.99805 -11.0564,2.01746 -18.554,5.02888 -30.5275,12.26134 -6.2674,3.78576 -10.3244,7.01458 -12.2213,9.72633 -1.5617,2.23262 -4.5398,6.48597 -6.6181,9.45189 -6.0648,8.65502 -17.6759,19.59784 -28.2981,26.66933 -20.9585,13.95263 -43.4108,19.83841 -66.7691,17.50323 -32.852,-3.28427 -55.5107,-18.06443 -68.2001,-44.48662 -5.9589,-12.40773 -7.4404,-19.1041 -7.4288,-33.57852 0.01,-10.79665 0.3652,-13.5599 2.6164,-20.27805 7.5287,-22.46729 26.2382,-40.66031 47.4453,-46.1356 6.3058,-1.62802 12.3557,-2.08822 12.3557,-0.93986 0,0.35558 -1.6203,3.08761 -3.6007,6.07119 -5.7226,8.6214 -7.6818,15.37234 -7.1959,24.79471 0.6593,12.78724 6.059,20.91706 18.0835,27.22688 4.4351,2.3273 6.407,2.7322 13.2131,2.71308 6.4964,-0.0183 9.0667,-0.51591 13.6751,-2.64782 7.9146,-3.66132 14.2109,-9.81246 18.075,-17.65823 4.2298,-8.5885 4.4931,-14.62381 2.1965,-50.34926 -4.1394,-64.39045 -1.1478,-96.50097 12.0067,-128.87433 1.3988,-3.44265 2.2695,-6.52111 1.9348,-6.84104 -0.3347,-0.31992 -3.3715,2.39547 -6.7483,6.03419 -3.3769,3.63872 -12.2148,13.09668 -19.6398,21.01768 -53.3009,56.86143 -94.6949,106.51131 -163,195.50942 -19.3274,25.18264 -33.2365,40.36076 -45.4504,49.59727 -8.7727,6.63413 -24.563,14.57027 -34.0536,17.11521 -14.3231,3.84077 -34.8075,3.91568 -45.4348,0.16615 -19.9203,-7.0283 -33.3047,-23.40307 -38.09137,-46.60203 -4.18503,-20.283 -1.18242,-37.59689 10.56477,-60.91956 5.7531,-11.42203 12.6786,-21.48864 27.5289,-40.01494 C 637.4036,630.814 652.9,610.83911 665,594.95858 c 12.1,-15.88052 27.5092,-35.8988 34.2426,-44.48505 6.7335,-8.58625 13.1393,-17.4271 14.2351,-19.64632 4.5997,-9.31487 4.4974,-19.92326 -0.2664,-27.63095 -1.2162,-1.96779 -6.7678,-8.39379 -12.3368,-14.28 l -10.1256,-10.70219 -4.3682,4.82405 c -29.491,32.56873 -64.8389,63.57718 -96.99154,85.08435 -10.23059,6.84334 -10.63526,7.25253 -11.29228,11.41869 -2.27072,14.39864 -11.78349,41.12043 -22.64597,63.61355 -17.40021,36.03093 -36.38714,62.99003 -62.82757,89.20745 -26.39067,26.16808 -50.53011,41.83961 -79.2215,51.43128 -14.68391,4.9089 -26.01423,6.73134 -41.90184,6.73976 -40.04648,0.0212 -69.67724,-17.87399 -82.77007,-49.98819 -11.4322,-28.04099 -9.89123,-66.36016 4.3092,-107.15694 6.76816,-19.44444 16.78458,-41.36162 26.66817,-58.35328 2.18421,-3.75505 3.70535,-7.09332 3.3803,-7.41836 -0.32505,-0.32505 -6.55273,1.27176 -13.8393,3.54846 -7.28656,2.2767 -16.1733,4.90537 -19.7483,5.84149 -7.0772,1.85317 -10,3.71813 -10,6.38072 0,0.94323 -1.37532,6.34446 -3.05626,12.00272 -11.86911,39.95295 -32.84358,80.1105 -59.05937,113.07459 -45.02951,56.62073 -104.42231,88.45047 -154.71758,82.9161 -26.1574,-2.87829 -46.45938,-12.78059 -60.17908,-29.35236 -9.74959,-11.77632 -17.29507,-31.06075 -18.65045,-47.66597 -0.99001,-12.12897 -1.27775,-12.25732 -9.66686,-4.31213 -40.04099,37.92221 -89.83953,67.89711 -134.27909,80.82569 -17.49483,5.08969 -44.74722,8.23144 -59.39131,6.84685 z m 326.35566,-89.91182 c 35.32623,-8.91963 79.0363,-56.03563 99.48356,-107.23539 7.4859,-18.74464 7.46484,-18.2854 1.00595,-21.9359 -10.5699,-5.97399 -19.25805,-18.31522 -21.91966,-31.13614 -1.85335,-8.92754 -0.73034,-24.18978 2.57325,-34.97163 3.42696,-11.1845 3.19779,-11.54402 -6.82671,-10.70949 -18.58902,1.54751 -38.54752,12.69121 -59.17498,33.03996 -30.8034,30.3872 -54.3229,73.30636 -60.95805,111.23824 -2.0163,11.52679 -1.99935,29.6763 0.0351,37.61742 2.98203,11.63962 10.66429,20.76681 20.13709,23.92459 6.18305,2.06114 17.84482,2.13769 25.64442,0.16834 z m 297.58045,-1.05802 c 15.91932,-3.90332 31.8158,-14.16396 50.17116,-32.38378 19.0918,-18.95083 32.92484,-38.28909 43.96358,-61.46001 5.4718,-11.4856 11.92915,-28.25768 11.92915,-30.98432 0,-0.703 -2.63794,-2.90642 -5.86209,-4.89648 -21.30732,-13.15162 -28.09076,-41.96884 -16.67286,-70.8291 2.10095,-5.31044 0.53102,-6.30022 -8.74161,-5.51126 -11.57991,0.98527 -23.96363,5.76287 -36.22344,13.97488 -36.59523,24.51265 -70.40697,74.32112 -82.1,120.94248 -3.48861,13.90948 -4.44629,37.0996 -1.92909,46.71268 2.10071,8.02251 3.66366,11.08065 8.26745,16.17649 3.74731,4.14783 9.54216,7.65322 14.76164,8.92954 5.29629,1.2951 15.68438,0.98437 22.43611,-0.67112 z M 0.44893,447.30075 c 32.60342,-5.28981 66.50113,-41.22204 79.65755,-84.43857 2.44091,-8.01798 2.74825,-10.6367 2.81669,-24 0.0878,-17.13314 -0.89772,-21.28257 -7.46932,-31.4501 -12.48093,-19.31043 -42.31899,-22.4042 -78.28491,-8.11701 -27.23663,10.81954 -58.16202,30.54553 -84.15557,53.67922 -13.31149,11.84694 -32.51337,31.49731 -32.51337,33.27277 0,3.02411 41.01136,-0.61413 73,-6.47604 7.425,-1.36063 14.2875,-2.71456 15.25,-3.00874 2.62976,-0.80376 2.14692,0.9183 -2.09966,7.48858 -14.20491,21.97777 -10.70397,50.8223 7.23362,59.59835 8.40411,4.11175 16.22934,5.12847 26.56497,3.45154 z"
         id="path2998"
         style="fill:#00154a;fill-opacity:1;stroke:none" />
    </g>
    <g
       transform="matrix(0.26510072,0,0,0.26789771,273.61175,388.28058)"
       id="text3810"
       style="font-size:45.48986053px;font-style:normal;font-weight:normal;line-height:125%;letter-spacing:0px;word-spacing:0px;fill:#949599;fill-opacity:1;stroke:none;font-family:Sans">
      <path
         d="m 1057.6822,778.69765 c 2.9171,4e-5 5.7158,0.72932 8.396,2.18787 2.6802,1.45861 4.7867,3.55022 6.3193,6.27485 1.5326,2.72467 2.2989,5.57519 2.2989,8.55156 0,2.96159 -0.7515,5.78619 -2.2545,8.47382 -1.503,2.68763 -3.5983,4.78295 -6.2859,6.28595 -2.6877,1.503 -5.5123,2.2545 -8.4738,2.2545 -2.9616,0 -5.7862,-0.7515 -8.4739,-2.2545 -2.6876,-1.503 -4.7829,-3.59832 -6.2859,-6.28595 -1.503,-2.68763 -2.2545,-5.51223 -2.2545,-8.47382 0,-2.97637 0.7663,-5.82689 2.2989,-8.55156 1.5326,-2.72463 3.6391,-4.81624 6.3193,-6.27485 2.6802,-1.45855 5.4789,-2.18783 8.3961,-2.18787 z m 0.022,3.33178 c -2.3397,3e-5 -4.5831,0.58494 -6.7302,1.75474 -2.1472,1.16985 -3.839,2.85054 -5.0754,5.04208 -1.2365,2.19159 -1.8547,4.48682 -1.8547,6.88568 0,2.38408 0.6034,4.65709 1.8103,6.81903 1.2068,2.16196 2.8912,3.85006 5.0532,5.0643 2.1619,1.21426 4.4275,1.82138 6.7968,1.82138 2.384,0 4.6533,-0.60712 6.8079,-1.82138 2.1545,-1.21424 3.8389,-2.90234 5.0532,-5.0643 1.2142,-2.16194 1.8213,-4.43495 1.8214,-6.81903 -10e-5,-2.39886 -0.6183,-4.69409 -1.8547,-6.88568 -1.2365,-2.19154 -2.932,-3.87223 -5.0865,-5.04208 -2.1546,-1.1698 -4.4017,-1.75471 -6.7413,-1.75474 z m -7.7075,22.78935 0,-18.05823 3.6649,0 c 3.4354,3e-5 5.3605,0.0148 5.7751,0.0444 1.2142,0.10368 2.1582,0.34431 2.832,0.72188 0.6737,0.37763 1.2364,0.95513 1.6881,1.73253 0.4516,0.77743 0.6774,1.63999 0.6775,2.58768 -10e-5,1.30311 -0.4258,2.4174 -1.2772,3.34288 -0.8515,0.92551 -2.0472,1.49931 -3.5872,1.72142 0.5479,0.20732 0.9699,0.43314 1.2661,0.67746 0.2961,0.24434 0.7033,0.70709 1.2216,1.38824 0.1333,0.17771 0.5775,0.9107 1.3327,2.19897 l 2.1324,3.64274 -4.5313,0 -1.5104,-2.93196 c -1.0217,-1.96944 -1.8658,-3.2096 -2.5321,-3.72048 -0.6664,-0.51086 -1.5104,-0.7663 -2.5322,-0.76631 l -0.9551,0 0,7.41875 z m 3.6649,-10.26187 1.4882,0 c 2.1175,2e-5 3.4317,-0.0814 3.9426,-0.24433 0.5109,-0.16287 0.9144,-0.44792 1.2106,-0.85516 0.2961,-0.40719 0.4442,-0.86994 0.4442,-1.38824 0,-0.50344 -0.1444,-0.95138 -0.4331,-1.34381 -0.2888,-0.39239 -0.6997,-0.67374 -1.2328,-0.84405 -0.5331,-0.17027 -1.8436,-0.25542 -3.9315,-0.25544 l -1.4882,0 z"
         id="path3815"
         style="font-weight:bold;fill:#949599;-inkscape-font-specification:Sans Bold" />
    </g>
  </g>
</svg>
