<svg id="logo_red" xmlns="http://www.w3.org/2000/svg" width="683" height="768" viewBox="0 0 683 768">
  <defs>
    <style>
      .cls-1 {
        fill: #eb0d3b;
      }
    </style>
  </defs>
  <g id="Gas_X_SmallSymbol">
    <g id="Gas_X_Red">
      <path class="cls-1" d="M395,293.64,362.72,298c-3.72,11.87-7.67,21.39-11.82,31.61a271.34,271.34,0,0,1-14.58,30.34,20.43,20.43,0,0,0-8,7.61A22.65,22.65,0,0,0,325,379.87c0,.71,0,1.4.09,2.1-.07.09-.13.18-.2.26q-4.39,5.58-10.4,5.58-8.79,0-8.79-9.22a26.71,26.71,0,0,1,.86-6.87l15.35-72-30.76-.26-2.39,10.67v-1.5a9.27,9.27,0,0,0-4.29-7.94q-4.29-3-13.08-3a41.55,41.55,0,0,0-29.91,12.12,76.65,76.65,0,0,0-18.87,29.59c-1.27,3.51-2.33,7-3.22,10.38l-15.12,14.49s-18.59,14.56-31.9,18-23.3.71-25.8-.83-9.71-2.77-9.71-25.24c0,0-.83-25.24,16.37-48.82l11.65-1.67s-4.44,22.19,16.92,28a45.15,45.15,0,0,0,41.61-10s19.14-15.81,16.92-39.94c0,0-.84-32.73-33.84-34.67,0,0-28.85-4-60.75,20.8l-22.19,20.8s-5,1.25-8.56-4.27c-.21-.31-.4-.64-.6-1A8.86,8.86,0,0,1,116,274.45s5.24-5.69,12.45-2.64c0,0-5-12.06-27.15-10.4,0,0-15,3.61-14.15,18.31,0,0,.83,13.87,13,20.25,0,0,6.1,3,11.65,5.55,0,0-17.76,28.57-19.14,49.93,0,0-6.94,36.61,23,52.42,0,0,22.61,10.54,54.33,2.12,9.57-2.08,28.61-13.21,35.27-23.2l-8.7,19.32s13.78.93,19.6-15.16c.54-1.48,1-3.07,1.51-4.74a26.57,26.57,0,0,0,27,21.11,30.22,30.22,0,0,0,18.12-5.47,59.78,59.78,0,0,0,13.83-14.26q1.08,9.66,6.54,14.69t14.48,5q11.79,0,23.48-8.25a35,35,0,0,0,6.89-6.57l.29.56a26,26,0,0,0,10.51,10.29q7.07,4,17.37,4a56.52,56.52,0,0,0,19.83-3.64,37.45,37.45,0,0,0,16.41-12q6.63-8.37,6.64-21.45,0-5.79-1.07-18.65C396.36,330.27,395.74,311.94,395,293.64ZM211.72,265s21.35,6.65,8.59,34.12c0,0-14.14,23.3-31.06,9.43,0,0-8.32-10.82,6.1-24.69,0,0-30,11.1-38.28,10C157.07,293.87,184.81,257.25,211.72,265ZM276.5,367.65q-1.94,8.79-7.19,13.83t-10.61,5a10.54,10.54,0,0,1-7.61-3q-3.12-3-3.11-13.73T251.84,345a78.82,78.82,0,0,1,10.72-24q6.85-10,15.44-10,4.5,0,6.65,2.68a8.76,8.76,0,0,1,2.14,5.47Zm86.2,18a19.4,19.4,0,0,1-13.3,4.72q-6.86,0-10-3.65c-1.61-1.88-2.59-4.6-2.94-8.13.28-.61.56-1.25.83-1.88a6.94,6.94,0,0,0,4.79,1.44,8.42,8.42,0,0,0,6.76-3.22c1.78-2.14,2.75-3.65,2.75-6.37,0-3.28-1.06-5.05-4.34-6.76A248.32,248.32,0,0,0,364,319.62q.63,8.36,2.78,32.8a173.92,173.92,0,0,1,1.29,18Q368.06,380.94,362.7,385.66Z"/>
      <polygon class="cls-1" points="430.64 361.86 473.74 361.86 477.38 344.92 434.5 344.92 430.64 361.86"/>
      <path class="cls-1" d="M597.6,248.06l-13.15-.25-26.82,43.45-7.27-44.09c-3.72-.28-8.53-.94-10.53-.94a89.23,89.23,0,0,0-64,29q-11.25,13-11.26,26.7,0,11.16,5.69,16c3.78,3.21,10,5.42,17.69,5.42a42.31,42.31,0,0,0-1.93-4.14c-1-2.07-1.5-5.75-1.5-11q0-17.58,8.36-29.7t23.59-17.91l14.72,78.21-35.82,67.05L102,421.43l402.3-5.62,31.89-62.36,11.94,62.7,36.76-.34L561.49,309.7Z"/>
    </g>
  </g>
</svg>
